<?xml version="1.0" encoding="utf-8"?>
<!-- Generator: Adobe Illustrator 21.0.0, SVG Export Plug-In . SVG Version: 6.00 Build 0)  -->
<svg version="1.1" id="Layer_1" xmlns="http://www.w3.org/2000/svg" xmlns:xlink="http://www.w3.org/1999/xlink" x="0px" y="0px"
	 viewBox="0 0 30 30" style="enable-background:new 0 0 30 30;" xml:space="preserve">
<style type="text/css">
	.st0{fill:#FFBF05;}
	.st1{fill:#FFFFFF;}
	.st2{fill:#BB203A;}
	.st3{fill:none;stroke:#FFBF05;stroke-width:50;stroke-miterlimit:10;}
	.st4{fill:#0060A3;}
	.st5{fill:#DE929C;}
	.st6{fill-rule:evenodd;clip-rule:evenodd;fill:none;stroke:#FFFFFF;stroke-width:3;stroke-miterlimit:10;}
	.st7{fill:#3B5998;}
	.st8{fill:none;stroke:#FFFFFF;stroke-width:3;stroke-miterlimit:10;}
	.st9{fill:none;stroke:#231F20;stroke-width:3;stroke-miterlimit:10;}
	.st10{fill:#231F20;}
	.st11{fill:none;stroke:#BB203A;stroke-width:1.5868;stroke-miterlimit:10;}
	.st12{fill:none;stroke:#BB203A;stroke-width:1.492;stroke-miterlimit:10;}
	.st13{stroke:#FFFFFF;stroke-width:1.3;stroke-linecap:round;stroke-linejoin:round;stroke-miterlimit:10;}
	.st14{stroke:#FFFFFF;stroke-width:1.3282;stroke-linecap:round;stroke-linejoin:round;stroke-miterlimit:10;}
	.st15{fill:#FFFFFF;stroke:#000000;stroke-width:3;stroke-linecap:round;stroke-linejoin:round;stroke-miterlimit:10;}
	.st16{stroke:#FFFFFF;stroke-width:2.526;stroke-linecap:round;stroke-linejoin:round;stroke-miterlimit:10;}
	.st17{fill:#FFFFFF;stroke:#000000;stroke-width:4.1162;stroke-linecap:round;stroke-linejoin:round;stroke-miterlimit:10;}
	.st18{fill:none;stroke:#000000;stroke-width:4.1162;stroke-linecap:round;stroke-linejoin:round;stroke-miterlimit:10;}
	.st19{fill:#DCDCDC;}
	.st20{fill:#C9C9C9;}
	.st21{fill:none;stroke:#FFFFFF;stroke-width:4;stroke-miterlimit:10;}
	.st22{fill:none;stroke:#231F20;stroke-width:4.5;stroke-miterlimit:10;}
	.st23{fill:none;stroke:#FFFFFF;stroke-width:4.5;stroke-miterlimit:10;}
	.st24{fill:none;stroke:#BB203A;stroke-width:50;stroke-miterlimit:10;}
	.st25{fill:none;stroke:#FFFFFF;stroke-width:5;stroke-linecap:round;stroke-linejoin:round;stroke-miterlimit:10;}
	.st26{fill:#463D67;}
	.st27{fill:none;stroke:#000000;stroke-width:5;stroke-linejoin:round;stroke-miterlimit:10;}
</style>
<g>
	<g>
		<path class="st1" d="M15,10.8c-2.4,0-4.4,2-4.4,4.4c0,2.4,2,4.4,4.4,4.4c2.4,0,4.4-2,4.4-4.4C19.4,12.8,17.4,10.8,15,10.8z
			 M15,18.2c-1.6,0-3-1.3-3-3c0-1.6,1.3-3,3-3c1.6,0,3,1.3,3,3C18,16.9,16.6,18.2,15,18.2z"/>
	</g>
	<g>
		<circle class="st1" cx="19.6" cy="10.7" r="1"/>
	</g>
	<g>
		<path class="st1" d="M19.2,6.6h-8.5c-2.4,0-4.3,1.9-4.3,4.3v8.5c0,2.4,1.9,4.3,4.3,4.3h8.5c2.4,0,4.3-1.9,4.3-4.3V11
			C23.6,8.6,21.6,6.6,19.2,6.6z M22.1,19.7c0,1.4-1.2,2.6-2.6,2.6h-9c-1.4,0-2.6-1.2-2.6-2.6v-9c0-1.4,1.2-2.6,2.6-2.6h9
			c1.4,0,2.6,1.2,2.6,2.6V19.7z"/>
	</g>
</g>
</svg>
