<?xml version="1.0" encoding="utf-8"?>
<!-- Generator: Adobe Illustrator 22.1.0, SVG Export Plug-In . SVG Version: 6.00 Build 0)  -->
<svg version="1.1" id="Isolation_Mode" xmlns="http://www.w3.org/2000/svg" xmlns:xlink="http://www.w3.org/1999/xlink" x="0px"
	 y="0px" viewBox="0 0 560.8 85.5" style="enable-background:new 0 0 560.8 85.5;" xml:space="preserve">
<style type="text/css">
	.st0{fill:#FFFFFF;}
</style>
<g>
	<path class="st0" d="M40.4,33.3c-11.4-4.5-15.6-5.1-15.1-9c0.4-4,6.1-3.5,11.6-1.3c7.7,3,11,5.5,11,5.5l12.3-13.8
		c0,0-11.9-13.3-29.3-13.3C13.3,1.5,1,10.9,1,28.3c0,16.6,13.5,22,19.8,24.4c11.4,4.5,15.6,5.1,15.1,9c-0.4,4-6.1,3.5-11.7,1.3
		c-7.7-3-11-5.5-11-5.5L1,71.3c0,0,11.9,13.3,29.3,13.3c17.6,0,29.9-9.4,29.9-26.8C60.2,41.2,46.7,35.7,40.4,33.3"/>
	<path class="st0" d="M356.8,33.3c-11.4-4.5-15.6-5.1-15.1-9c0.5-4,6.1-3.5,11.6-1.3c7.7,3,11,5.5,11,5.5l12.3-13.8
		c0,0-11.9-13.3-29.3-13.3c-17.6,0-29.9,9.4-29.9,26.8c0,16.6,13.5,22,19.8,24.4c11.4,4.5,15.5,5.1,15.1,9c-0.5,4-6.1,3.5-11.7,1.3
		c-7.7-3-11-5.5-11-5.5l-12.3,13.8c0,0,11.9,13.3,29.3,13.3c17.6,0,29.9-9.4,29.9-26.8C376.7,41.2,363.1,35.7,356.8,33.3"/>
	<polygon class="st0" points="199.4,3.5 225.5,3.5 225.5,61.8 246.4,61.8 246.4,82.5 199.4,82.5 	"/>
	<polygon class="st0" points="261.2,3.5 287.2,3.5 287.2,61.8 308.2,61.8 308.2,82.5 261.2,82.5 	"/>
	<path class="st0" d="M452.1,64.9c4.2,0,4.2-4.2,4.2-4.2V3.5h26v56c0,18.5-13.9,25.1-30.2,25.1c-16.4,0-30.2-6.7-30.2-25.1v-56h26
		v57.2C447.9,60.7,447.9,64.9,452.1,64.9"/>
	<path class="st0" d="M551.5,9.8c-5.7-5.3-14.7-6.3-20-6.3h-30.3v79h26V57.8c1.6,0,17,1,24.8-6c6.8-6.2,7.5-15,7.5-22.6
		C559.4,24.9,558.7,16.6,551.5,9.8 M532.6,38.4c-2.1,1.6-5.5,1-5.5,1V22c0,0,3.4-0.6,5.5,1c1.9,1.4,2.6,5,2.6,7.7
		C535.3,33.4,534.5,37,532.6,38.4"/>
	<rect x="151.2" y="3.5" class="st0" width="26.3" height="79"/>
	<polygon class="st0" points="111.4,3.5 98.8,29.7 97.6,29.7 97.6,3.5 72.7,3.5 72.7,82.5 97.6,82.5 97.6,56.3 98.8,56.3 
		111.4,82.5 137.3,82.5 119.7,43 137.3,3.5 	"/>
</g>
</svg>
