<?xml version="1.0" encoding="utf-8"?>
<!-- Generator: Adobe Illustrator 21.0.0, SVG Export Plug-In . SVG Version: 6.00 Build 0)  -->
<svg version="1.1" id="Layer_1" xmlns="http://www.w3.org/2000/svg" xmlns:xlink="http://www.w3.org/1999/xlink" x="0px" y="0px"
	 viewBox="0 0 30 30" style="enable-background:new 0 0 30 30;" xml:space="preserve">
<style type="text/css">
	.st0{fill:#FFBF05;}
	.st1{fill:#FFFFFF;}
	.st2{fill:#BB203A;}
	.st3{fill:none;stroke:#FFBF05;stroke-width:50;stroke-miterlimit:10;}
	.st4{fill:#0060A3;}
	.st5{fill:#DE929C;}
	.st6{fill-rule:evenodd;clip-rule:evenodd;fill:none;stroke:#FFFFFF;stroke-width:3;stroke-miterlimit:10;}
	.st7{fill:#3B5998;}
	.st8{fill:none;stroke:#FFFFFF;stroke-width:3;stroke-miterlimit:10;}
	.st9{fill:none;stroke:#231F20;stroke-width:3;stroke-miterlimit:10;}
	.st10{fill:#231F20;}
	.st11{fill:none;stroke:#BB203A;stroke-width:1.5868;stroke-miterlimit:10;}
	.st12{fill:none;stroke:#BB203A;stroke-width:1.492;stroke-miterlimit:10;}
	.st13{stroke:#FFFFFF;stroke-width:1.3;stroke-linecap:round;stroke-linejoin:round;stroke-miterlimit:10;}
	.st14{stroke:#FFFFFF;stroke-width:1.3282;stroke-linecap:round;stroke-linejoin:round;stroke-miterlimit:10;}
	.st15{fill:#FFFFFF;stroke:#000000;stroke-width:3;stroke-linecap:round;stroke-linejoin:round;stroke-miterlimit:10;}
	.st16{stroke:#FFFFFF;stroke-width:2.526;stroke-linecap:round;stroke-linejoin:round;stroke-miterlimit:10;}
	.st17{fill:#FFFFFF;stroke:#000000;stroke-width:4.1162;stroke-linecap:round;stroke-linejoin:round;stroke-miterlimit:10;}
	.st18{fill:none;stroke:#000000;stroke-width:4.1162;stroke-linecap:round;stroke-linejoin:round;stroke-miterlimit:10;}
	.st19{fill:#DCDCDC;}
	.st20{fill:#C9C9C9;}
	.st21{fill:none;stroke:#FFFFFF;stroke-width:4;stroke-miterlimit:10;}
	.st22{fill:none;stroke:#231F20;stroke-width:4.5;stroke-miterlimit:10;}
	.st23{fill:none;stroke:#FFFFFF;stroke-width:4.5;stroke-miterlimit:10;}
	.st24{fill:none;stroke:#BB203A;stroke-width:50;stroke-miterlimit:10;}
	.st25{fill:none;stroke:#FFFFFF;stroke-width:5;stroke-linecap:round;stroke-linejoin:round;stroke-miterlimit:10;}
	.st26{fill:#463D67;}
	.st27{fill:none;stroke:#000000;stroke-width:5;stroke-linejoin:round;stroke-miterlimit:10;}
</style>
<g>
	<path class="st1" d="M22.3,22.3c-0.4,0-1-0.1-1.7-0.6c-0.5-0.4-1-0.9-1.5-1.4c-0.4-0.4-0.9-1.1-1.2-1.1c-0.2,0.1-0.4,0.8-0.4,1.6
		c0,0.1,0,0.7-0.4,1c-0.3,0.4-0.9,0.5-1,0.5l-0.1,0h-1.4c-0.3,0-3.5,0.1-6.3-2.8c-3-3.1-5.6-9.1-5.7-9.4C2.7,9.8,2.6,9.2,2.9,8.8
		C3.3,8.4,3.9,8.3,4,8.3l3.4,0l0.1,0c0.1,0,0.5,0.1,0.8,0.3c0.3,0.2,0.5,0.6,0.5,0.6c0,0,0.5,1.3,1.2,2.5c1,1.8,1.5,2.3,1.7,2.4
		c0.2-0.4,0.3-1.6,0.2-2.8l0,0l0,0c0-0.4-0.1-1-0.2-1.2C11.6,10,11.3,9.9,11,9.9c-0.3,0-0.5-0.3-0.6-0.5c-0.1-0.5,0.5-1,0.9-1.2
		c0.7-0.4,1.9-0.4,3.2-0.4c1,0,1.3,0.1,1.8,0.2c1.4,0.3,1.3,1.5,1.3,3c0,0.4,0,0.9,0,1.5c0,0.1,0,0.3,0,0.4c0,0.4,0,1,0.1,1.3
		c0.2-0.2,0.7-0.7,1.7-2.3c0.7-1.2,1.3-2.6,1.3-2.7l0,0c0-0.1,0.2-0.4,0.5-0.6c0.3-0.2,0.6-0.2,0.8-0.2l3.5,0c0.3,0,1.5-0.1,1.8,0.7
		c0.2,0.5,0.1,1.4-1.9,4.1c-0.3,0.4-0.6,0.7-0.8,1c-0.6,0.8-1.1,1.4-1,1.6c0,0.2,0.5,0.6,1.1,1.2l0.1,0.1c0.8,0.8,1.9,1.9,2.4,2.8
		c0.4,0.7,0.3,1.2,0.2,1.5c-0.4,0.7-1.3,0.8-1.5,0.8l-3.1,0C22.5,22.3,22.4,22.3,22.3,22.3z M18,17.9c0.7,0,1.4,0.7,2.1,1.5
		c0.4,0.5,0.8,1,1.2,1.2c0.6,0.4,1.1,0.4,1.1,0.4l0.1,0l3.1,0c0.2,0,0.4-0.1,0.5-0.2l0,0c0,0,0-0.1-0.1-0.3l0-0.1
		c-0.3-0.6-1.1-1.5-2.2-2.5l-0.1-0.1c-1.9-1.8-1.9-2.1-0.1-4.4c0.2-0.3,0.5-0.6,0.8-1c1.5-2,1.7-2.7,1.7-3c-0.1,0-0.4,0-0.6,0
		l-0.1,0l-3.6,0l0,0c0,0-0.1,0-0.1,0c0,0,0,0.1-0.1,0.1c-0.1,0.2-0.6,1.6-1.3,2.8c-1.4,2.4-2.1,2.8-2.6,2.9c-0.3,0.1-0.5,0-0.7-0.1
		c-0.8-0.5-0.8-1.6-0.7-2.5c0-0.1,0-0.3,0-0.4c0-0.6,0-1.1,0-1.6c0.1-1.6,0-1.7-0.3-1.8c-0.3-0.1-0.6-0.1-1.5-0.1
		c-0.9,0-1.8,0-2.3,0.1c0.2,0.1,0.3,0.2,0.4,0.4c0.4,0.6,0.5,1.7,0.5,1.9c0.1,1.6,0,3.5-0.8,4c-1,0.6-2-0.6-3.3-2.9
		c-0.7-1.3-1.3-2.6-1.3-2.7c0,0-0.1-0.1-0.1-0.1c-0.1,0-0.2-0.1-0.2-0.1l-3.3,0c0,0-0.1,0-0.1,0c0,0,0,0,0,0c0,0,2.6,6,5.5,9
		c2.5,2.6,5.3,2.5,5.3,2.5l0,0h1.4c0.1,0,0.2-0.1,0.2-0.1c0,0,0-0.2,0-0.2c0-0.4,0-2.3,1.3-2.7C17.8,18,17.9,17.9,18,17.9z
		 M11.2,8.7C11.2,8.7,11.2,8.7,11.2,8.7C11.2,8.7,11.2,8.7,11.2,8.7z"/>
</g>
</svg>
